<?xml version="1.0" encoding="UTF-8"?> <!-- Generator: Adobe Illustrator 21.1.0, SVG Export Plug-In . SVG Version: 6.00 Build 0) --> <svg xmlns="http://www.w3.org/2000/svg" xmlns:xlink="http://www.w3.org/1999/xlink" id="Layer_1" x="0px" y="0px" viewBox="0 0 100.4 100.4" style="enable-background:new 0 0 100.4 100.4;" xml:space="preserve"> <style type="text/css"> .st0{fill:#0051FF;} </style> <g> <path class="st0" d="M58,70l15-24.1l1.4-2.3h-0.1c1.9-3.7,2.8-7.8,2.8-11.9c0-14.8-12-26.8-26.8-26.8c-14.8,0-26.8,12-26.8,26.8 c0,4.1,1,8.2,2.8,11.9h-0.1L42,70.1c-11.2,1.6-18.6,6.2-18.6,11.8c0,6.9,11.8,12.4,26.8,12.4s26.8-5.4,26.8-12.4 C77.1,76.2,69.3,71.5,58,70z M30.1,44.3c-2.4-3.8-3.7-8.2-3.7-12.6c0-13.1,10.7-23.8,23.8-23.8c13.1,0,23.8,10.7,23.8,23.8 c0,4.5-1.3,8.8-3.7,12.6L69,46.6h0L49.9,77.4L31.5,46.6h0.1L30.1,44.3z M50.2,91.2c-14,0-23.8-4.9-23.8-9.4c0-4,7.4-7.8,17.3-9 l6.1,10.3l6.4-10.3c10.1,1.1,17.8,5,17.8,9C74.1,86.3,64.3,91.2,50.2,91.2z"></path> <path class="st0" d="M50.7,41.4c5.4,0,9.7-4.4,9.7-9.7s-4.4-9.7-9.7-9.7S41,26.3,41,31.7S45.3,41.4,50.7,41.4z M50.7,24.9 c3.7,0,6.7,3,6.7,6.7s-3,6.7-6.7,6.7s-6.7-3-6.7-6.7S47,24.9,50.7,24.9z"></path> </g> <g id="Layer_1_1_"> </g> </svg> 